{
  "accessors": [
    {
      "bufferView": 2,
      "componentType": 5126,
      "count": 33436,
      "max": [
        0.92585098743438721,
        0.62590199708938599,
        0.50271499156951904
      ],
      "min": [
        -0.9322810173034668,
        -0.30292201042175293,
        -0.2936680018901825
      ],
      "type": "VEC3"
    },
    {
      "bufferView": 2,
      "byteOffset": 401232,
      "componentType": 5126,
      "count": 33436,
      "max": [
        0.99999988079071045,
        0.9999995231628418,
        0.99999904632568359
      ],
      "min": [
        -0.99999845027923584,
        -0.99999988079071045,
        -0.99999988079071045
      ],
      "type": "VEC3"
    },
    {
      "bufferView": 1,
      "componentType": 5126,
      "count": 33436,
      "max": [
        1.5,
        1.4999990463256836
      ],
      "min": [
        -0.49998399615287781,
        -0.5
      ],
      "type": "VEC2"
    },
    {
      "bufferView": 0,
      "componentType": 5125,
      "count": 184752,
      "max": [
        33435
      ],
      "min": [
        0
      ],
      "type": "SCALAR"
    },
    {
      "bufferView": 2,
      "byteOffset": 802464,
      "componentType": 5126,
      "count": 6520,
      "max": [
        0.78431397676467896,
        0.39346599578857422,
        0.43271100521087646
      ],
      "min": [
        0.33804300427436829,
        0.17320999503135681,
        0.0065179998055100441
      ],
      "type": "VEC3"
    },
    {
      "bufferView": 2,
      "byteOffset": 880704,
      "componentType": 5126,
      "count": 6520,
      "max": [
        0.99996292591094971,
        0.9999774694442749,
        0.99977189302444458
      ],
      "min": [
        -0.99999451637268066,
        -0.99992716312408447,
        -0.99996030330657959
      ],
      "type": "VEC3"
    },
    {
      "bufferView": 1,
      "byteOffset": 267488,
      "componentType": 5126,
      "count": 6520,
      "max": [
        1.5001729726791382,
        1.4938030242919922
      ],
      "min": [
        -0.41434800624847412,
        -0.50619697570800781
      ],
      "type": "VEC2"
    },
    {
      "bufferView": 0,
      "byteOffset": 739008,
      "componentType": 5125,
      "count": 35022,
      "max": [
        6519
      ],
      "min": [
        0
      ],
      "type": "SCALAR"
    },
    {
      "bufferView": 2,
      "byteOffset": 958944,
      "componentType": 5126,
      "count": 7287,
      "max": [
        -0.071406997740268707,
        0.40509799122810364,
        0.42908599972724915
      ],
      "min": [
        -0.49602198600769043,
        0.16336700320243835,
        0.0049760001711547375
      ],
      "type": "VEC3"
    },
    {
      "bufferView": 2,
      "byteOffset": 1046388,
      "componentType": 5126,
      "count": 7287,
      "max": [
        0.9998934268951416,
        0.99996507167816162,
        0.99999809265136719
      ],
      "min": [
        -0.99971133470535278,
        -0.99982351064682007,
        -0.99980872869491577
      ],
      "type": "VEC3"
    },
    {
      "bufferView": 1,
      "byteOffset": 319648,
      "componentType": 5126,
      "count": 7287,
      "max": [
        1.480167031288147,
        1.4925980567932129
      ],
      "min": [
        -0.39641299843788147,
        -0.50740301609039307
      ],
      "type": "VEC2"
    },
    {
      "bufferView": 0,
      "byteOffset": 879096,
      "componentType": 5125,
      "count": 38922,
      "max": [
        7286
      ],
      "min": [
        0
      ],
      "type": "SCALAR"
    },
    {
      "bufferView": 2,
      "byteOffset": 1133832,
      "componentType": 5126,
      "count": 6989,
      "max": [
        -0.36550098657608032,
        0.40349999070167542,
        0.44155499339103699
      ],
      "min": [
        -0.80438101291656494,
        0.18018899857997894,
        0.0004070000140927732
      ],
      "type": "VEC3"
    },
    {
      "bufferView": 2,
      "byteOffset": 1217700,
      "componentType": 5126,
      "count": 6989,
      "max": [
        0.99980276823043823,
        0.99990856647491455,
        0.99950891733169556
      ],
      "min": [
        -0.99992859363555908,
        -0.99984794855117798,
        -0.99992942810058594
      ],
      "type": "VEC3"
    },
    {
      "bufferView": 1,
      "byteOffset": 377944,
      "componentType": 5126,
      "count": 6989,
      "max": [
        1.5378750562667847,
        1.4896960258483887
      ],
      "min": [
        -0.45383599400520325,
        -0.51030397415161133
      ],
      "type": "VEC2"
    },
    {
      "bufferView": 0,
      "byteOffset": 1034784,
      "componentType": 5125,
      "count": 37218,
      "max": [
        6988
      ],
      "min": [
        0
      ],
      "type": "SCALAR"
    },
    {
      "bufferView": 2,
      "byteOffset": 1301568,
      "componentType": 5126,
      "count": 4265,
      "max": [
        0.90114200115203857,
        0.59474200010299683,
        -0.28875899314880371
      ],
      "min": [
        -0.907725989818573,
        -0.25897899270057678,
        -0.39037799835205078
      ],
      "type": "VEC3"
    },
    {
      "bufferView": 2,
      "byteOffset": 1352748,
      "componentType": 5126,
      "count": 4265,
      "max": [
        1,
        1,
        1
      ],
      "min": [
        -1,
        -1,
        -0.99984961748123169
      ],
      "type": "VEC3"
    },
    {
      "bufferView": 1,
      "byteOffset": 433856,
      "componentType": 5126,
      "count": 4265,
      "max": [
        1,
        1
      ],
      "min": [
        0,
        0
      ],
      "type": "VEC2"
    },
    {
      "bufferView": 0,
      "byteOffset": 1183656,
      "componentType": 5125,
      "count": 15702,
      "max": [
        4264
      ],
      "min": [
        0
      ],
      "type": "SCALAR"
    }
  ],
  "asset": {
    "extras": {
      "author": "DoobiDooba (https://sketchfab.com/DoobiDooba)",
      "license": "CC-BY-4.0 (http://creativecommons.org/licenses/by/4.0/)",
      "source": "https://sketchfab.com/3d-models/couch-daa2068b09c348ec84ceee7d33fac3cc",
      "title": "Couch"
    },
    "generator": "Sketchfab-9.66.0",
    "version": "2.0"
  },
  "bufferViews": [
    {
      "buffer": 0,
      "byteLength": 1246464,
      "byteOffset": 0,
      "name": "floatBufferViews",
      "target": 34963
    },
    {
      "buffer": 0,
      "byteLength": 467976,
      "byteOffset": 1246464,
      "byteStride": 8,
      "name": "floatBufferViews",
      "target": 34962
    },
    {
      "buffer": 0,
      "byteLength": 1403928,
      "byteOffset": 1714440,
      "byteStride": 12,
      "name": "floatBufferViews",
      "target": 34962
    }
  ],
  "buffers": [
    {
      "byteLength": 3118368,
      "uri": "scene.bin"
    }
  ],
  "images": [
    {
      "uri": "textures/couch_baseColor.jpeg"
    },
    {
      "uri": "textures/couch_metallicRoughness.png"
    },
    {
      "uri": "textures/cushion_1_baseColor.png"
    },
    {
      "uri": "textures/cushion_1_metallicRoughness.png"
    },
    {
      "uri": "textures/cushion_2_baseColor.png"
    },
    {
      "uri": "textures/stand_baseColor.jpeg"
    },
    {
      "uri": "textures/stand_metallicRoughness.png"
    }
  ],
  "materials": [
    {
      "doubleSided": true,
      "emissiveFactor": [
        0,
        0,
        0
      ],
      "name": "couch",
      "pbrMetallicRoughness": {
        "baseColorFactor": [
          1,
          1,
          1,
          1
        ],
        "baseColorTexture": {
          "index": 0,
          "texCoord": 0
        },
        "metallicFactor": 0,
        "metallicRoughnessTexture": {
          "index": 1,
          "texCoord": 0
        },
        "roughnessFactor": 0.83317149297701476
      }
    },
    {
      "doubleSided": true,
      "emissiveFactor": [
        0,
        0,
        0
      ],
      "name": "cushion_1",
      "pbrMetallicRoughness": {
        "baseColorFactor": [
          1,
          1,
          1,
          1
        ],
        "baseColorTexture": {
          "index": 2,
          "texCoord": 0
        },
        "metallicFactor": 0,
        "metallicRoughnessTexture": {
          "index": 3,
          "texCoord": 0
        },
        "roughnessFactor": 0.59999999999999998
      }
    },
    {
      "doubleSided": true,
      "emissiveFactor": [
        0,
        0,
        0
      ],
      "name": "cushion_2",
      "pbrMetallicRoughness": {
        "baseColorFactor": [
          1,
          1,
          1,
          1
        ],
        "baseColorTexture": {
          "index": 4,
          "texCoord": 0
        },
        "metallicFactor": 0,
        "metallicRoughnessTexture": {
          "index": 3,
          "texCoord": 0
        },
        "roughnessFactor": 0.59999999999999998
      }
    },
    {
      "doubleSided": true,
      "emissiveFactor": [
        0,
        0,
        0
      ],
      "name": "cushion_3",
      "pbrMetallicRoughness": {
        "baseColorFactor": [
          1,
          1,
          1,
          1
        ],
        "baseColorTexture": {
          "index": 2,
          "texCoord": 0
        },
        "metallicFactor": 0,
        "metallicRoughnessTexture": {
          "index": 3,
          "texCoord": 0
        },
        "roughnessFactor": 0.59999999999999998
      }
    },
    {
      "doubleSided": true,
      "emissiveFactor": [
        0,
        0,
        0
      ],
      "name": "stand",
      "pbrMetallicRoughness": {
        "baseColorFactor": [
          1,
          1,
          1,
          1
        ],
        "baseColorTexture": {
          "index": 5,
          "texCoord": 0
        },
        "metallicFactor": 0,
        "metallicRoughnessTexture": {
          "index": 6,
          "texCoord": 0
        },
        "roughnessFactor": 0.59999999999999998
      }
    }
  ],
  "meshes": [
    {
      "primitives": [
        {
          "attributes": {
            "NORMAL": 1,
            "POSITION": 0,
            "TEXCOORD_0": 2
          },
          "indices": 3,
          "material": 0,
          "mode": 4
        }
      ]
    },
    {
      "primitives": [
        {
          "attributes": {
            "NORMAL": 5,
            "POSITION": 4,
            "TEXCOORD_0": 6
          },
          "indices": 7,
          "material": 1,
          "mode": 4
        }
      ]
    },
    {
      "primitives": [
        {
          "attributes": {
            "NORMAL": 9,
            "POSITION": 8,
            "TEXCOORD_0": 10
          },
          "indices": 11,
          "material": 2,
          "mode": 4
        }
      ]
    },
    {
      "primitives": [
        {
          "attributes": {
            "NORMAL": 13,
            "POSITION": 12,
            "TEXCOORD_0": 14
          },
          "indices": 15,
          "material": 3,
          "mode": 4
        }
      ]
    },
    {
      "primitives": [
        {
          "attributes": {
            "NORMAL": 17,
            "POSITION": 16,
            "TEXCOORD_0": 18
          },
          "indices": 19,
          "material": 4,
          "mode": 4
        }
      ]
    }
  ],
  "nodes": [
    {
      "children": [
        1
      ],
      "name": "RootNode (gltf orientation matrix)",
      "rotation": [
        -0.70710678118654746,
        -0,
        -0,
        0.70710678118654757
      ]
    },
    {
      "children": [
        2
      ],
      "name": "RootNode (model correction matrix)"
    },
    {
      "children": [
        3,
        4,
        5,
        6,
        7
      ],
      "name": "1.obj.cleaner.materialmerger.gles"
    },
    {
      "mesh": 0,
      "name": ""
    },
    {
      "mesh": 1,
      "name": ""
    },
    {
      "mesh": 2,
      "name": ""
    },
    {
      "mesh": 3,
      "name": ""
    },
    {
      "mesh": 4,
      "name": ""
    }
  ],
  "samplers": [
    {
      "magFilter": 9729,
      "minFilter": 9987,
      "wrapS": 10497,
      "wrapT": 10497
    }
  ],
  "scene": 0,
  "scenes": [
    {
      "name": "OSG_Scene",
      "nodes": [
        0
      ]
    }
  ],
  "textures": [
    {
      "sampler": 0,
      "source": 0
    },
    {
      "sampler": 0,
      "source": 1
    },
    {
      "sampler": 0,
      "source": 2
    },
    {
      "sampler": 0,
      "source": 3
    },
    {
      "sampler": 0,
      "source": 4
    },
    {
      "sampler": 0,
      "source": 5
    },
    {
      "sampler": 0,
      "source": 6
    }
  ]
}

