{
  "accessors": [
    {
      "bufferView": 2,
      "componentType": 5126,
      "count": 65532,
      "max": [
        75.273529052734375,
        -0.035519249737262726,
        52.827751159667969
      ],
      "min": [
        -84.831390380859375,
        -57.120246887207031,
        -15.541776657104492
      ],
      "type": "VEC3"
    },
    {
      "bufferView": 2,
      "byteOffset": 786384,
      "componentType": 5126,
      "count": 65532,
      "max": [
        0.9999963641166687,
        0.99997895956039429,
        0.99998354911804199
      ],
      "min": [
        -0.9999890923500061,
        -0.99995416402816772,
        -1
      ],
      "type": "VEC3"
    },
    {
      "bufferView": 1,
      "componentType": 5126,
      "count": 65532,
      "max": [
        0.99804002046585083,
        0.93577998876571655
      ],
      "min": [
        0.0024200000334531069,
        0.0019499999471008778
      ],
      "type": "VEC2"
    },
    {
      "bufferView": 0,
      "componentType": 5125,
      "count": 300813,
      "max": [
        65531
      ],
      "min": [
        0
      ],
      "type": "SCALAR"
    },
    {
      "bufferView": 2,
      "byteOffset": 1572768,
      "componentType": 5126,
      "count": 65532,
      "max": [
        75.468292236328125,
        -3.0662124156951904,
        52.821971893310547
      ],
      "min": [
        -84.831390380859375,
        -57.131805419921875,
        -15.540271759033203
      ],
      "type": "VEC3"
    },
    {
      "bufferView": 2,
      "byteOffset": 2359152,
      "componentType": 5126,
      "count": 65532,
      "max": [
        0.99999517202377319,
        0.99996370077133179,
        0.99998354911804199
      ],
      "min": [
        -0.99994903802871704,
        -0.99996751546859741,
        -1
      ],
      "type": "VEC3"
    },
    {
      "bufferView": 1,
      "byteOffset": 524256,
      "componentType": 5126,
      "count": 65532,
      "max": [
        0.93827998638153076,
        0.9256100058555603
      ],
      "min": [
        0.014130000025033951,
        0.066710002720355988
      ],
      "type": "VEC2"
    },
    {
      "bufferView": 0,
      "byteOffset": 1203252,
      "componentType": 5125,
      "count": 309783,
      "max": [
        65531
      ],
      "min": [
        0
      ],
      "type": "SCALAR"
    },
    {
      "bufferView": 2,
      "byteOffset": 3145536,
      "componentType": 5126,
      "count": 65532,
      "max": [
        75.468292236328125,
        -0.39516663551330566,
        52.8341064453125
      ],
      "min": [
        -84.1949462890625,
        -57.137222290039062,
        -15.541776657104492
      ],
      "type": "VEC3"
    },
    {
      "bufferView": 2,
      "byteOffset": 3931920,
      "componentType": 5126,
      "count": 65532,
      "max": [
        0.99985343217849731,
        0.99997025728225708,
        0.99997657537460327
      ],
      "min": [
        -0.99998772144317627,
        -0.99997562170028687,
        -1
      ],
      "type": "VEC3"
    },
    {
      "bufferView": 1,
      "byteOffset": 1048512,
      "componentType": 5126,
      "count": 65532,
      "max": [
        0.99560999870300293,
        0.93414998054504395
      ],
      "min": [
        0.010870000347495079,
        0.0076000001281499863
      ],
      "type": "VEC2"
    },
    {
      "bufferView": 0,
      "byteOffset": 2442384,
      "componentType": 5125,
      "count": 256233,
      "max": [
        65531
      ],
      "min": [
        0
      ],
      "type": "SCALAR"
    },
    {
      "bufferView": 2,
      "byteOffset": 4718304,
      "componentType": 5126,
      "count": 23020,
      "max": [
        75.307838439941406,
        -0.059314999729394913,
        52.730396270751953
      ],
      "min": [
        -83.9425048828125,
        -56.944927215576172,
        -15.540271759033203
      ],
      "type": "VEC3"
    },
    {
      "bufferView": 2,
      "byteOffset": 4994544,
      "componentType": 5126,
      "count": 23020,
      "max": [
        0.9999963641166687,
        0.99989277124404907,
        0.99998354911804199
      ],
      "min": [
        -0.99990499019622803,
        -0.99995416402816772,
        -1
      ],
      "type": "VEC3"
    },
    {
      "bufferView": 1,
      "byteOffset": 1572768,
      "componentType": 5126,
      "count": 23020,
      "max": [
        0.99633002281188965,
        0.92492997646331787
      ],
      "min": [
        0.010610000230371952,
        0.025909999385476112
      ],
      "type": "VEC2"
    },
    {
      "bufferView": 0,
      "byteOffset": 3467316,
      "componentType": 5125,
      "count": 33147,
      "max": [
        23019
      ],
      "min": [
        0
      ],
      "type": "SCALAR"
    }
  ],
  "asset": {
    "extras": {
      "author": "Alex Dubnoff (https://sketchfab.com/alexdubnoff)",
      "license": "CC-BY-4.0 (http://creativecommons.org/licenses/by/4.0/)",
      "source": "https://sketchfab.com/3d-models/stone-assets-free1100-followers-b2b3716500ce4dce9bad6b1188d386d1",
      "title": "Stone Assets free(1100 followers)"
    },
    "generator": "Sketchfab-9.66.0",
    "version": "2.0"
  },
  "bufferViews": [
    {
      "buffer": 0,
      "byteLength": 3599904,
      "byteOffset": 0,
      "name": "floatBufferViews",
      "target": 34963
    },
    {
      "buffer": 0,
      "byteLength": 1756928,
      "byteOffset": 3599904,
      "byteStride": 8,
      "name": "floatBufferViews",
      "target": 34962
    },
    {
      "buffer": 0,
      "byteLength": 5270784,
      "byteOffset": 5356832,
      "byteStride": 12,
      "name": "floatBufferViews",
      "target": 34962
    }
  ],
  "buffers": [
    {
      "byteLength": 10627616,
      "uri": "scene.bin"
    }
  ],
  "images": [
    {
      "uri": "textures/defaultMat_baseColor.jpeg"
    },
    {
      "uri": "textures/defaultMat_metallicRoughness.png"
    }
  ],
  "materials": [
    {
      "doubleSided": true,
      "name": "defaultMat",
      "occlusionTexture": {
        "index": 1,
        "strength": 1,
        "texCoord": 0
      },
      "pbrMetallicRoughness": {
        "baseColorFactor": [
          1,
          1,
          1,
          1
        ],
        "baseColorTexture": {
          "index": 0,
          "texCoord": 0
        },
        "metallicFactor": 0,
        "metallicRoughnessTexture": {
          "index": 1,
          "texCoord": 0
        },
        "roughnessFactor": 0.59999999999999998
      }
    }
  ],
  "meshes": [
    {
      "primitives": [
        {
          "attributes": {
            "NORMAL": 1,
            "POSITION": 0,
            "TEXCOORD_0": 2
          },
          "indices": 3,
          "material": 0,
          "mode": 4
        }
      ]
    },
    {
      "primitives": [
        {
          "attributes": {
            "NORMAL": 5,
            "POSITION": 4,
            "TEXCOORD_0": 6
          },
          "indices": 7,
          "material": 0,
          "mode": 4
        }
      ]
    },
    {
      "primitives": [
        {
          "attributes": {
            "NORMAL": 9,
            "POSITION": 8,
            "TEXCOORD_0": 10
          },
          "indices": 11,
          "material": 0,
          "mode": 4
        }
      ]
    },
    {
      "primitives": [
        {
          "attributes": {
            "NORMAL": 13,
            "POSITION": 12,
            "TEXCOORD_0": 14
          },
          "indices": 15,
          "material": 0,
          "mode": 4
        }
      ]
    }
  ],
  "nodes": [
    {
      "children": [
        1
      ],
      "name": "RootNode (gltf orientation matrix)",
      "rotation": [
        -0.70710678118654746,
        -0,
        -0,
        0.70710678118654757
      ]
    },
    {
      "children": [
        2
      ],
      "name": "RootNode (model correction matrix)"
    },
    {
      "children": [
        3,
        4,
        5,
        6
      ],
      "name": "stone assets.obj.cleaner.materialmerger.gles"
    },
    {
      "mesh": 0,
      "name": ""
    },
    {
      "mesh": 1,
      "name": ""
    },
    {
      "mesh": 2,
      "name": ""
    },
    {
      "mesh": 3,
      "name": ""
    }
  ],
  "samplers": [
    {
      "magFilter": 9729,
      "minFilter": 9987,
      "wrapS": 10497,
      "wrapT": 10497
    }
  ],
  "scene": 0,
  "scenes": [
    {
      "name": "OSG_Scene",
      "nodes": [
        0
      ]
    }
  ],
  "textures": [
    {
      "sampler": 0,
      "source": 0
    },
    {
      "sampler": 0,
      "source": 1
    }
  ]
}

